<?xml version="1.0" encoding="UTF-8" standalone="no"?>
<svg
   width="47"
   height="47"
   viewBox="0 0 46.999999 47"
   fill="none"
   version="1.1"
   id="svg1"
   sodipodi:docname="juice-logo.svg"
   inkscape:version="1.4.2 (ebf0e940, 2025-05-08)"
   xmlns:inkscape="http://www.inkscape.org/namespaces/inkscape"
   xmlns:sodipodi="http://sodipodi.sourceforge.net/DTD/sodipodi-0.dtd"
   xmlns="http://www.w3.org/2000/svg"
   xmlns:svg="http://www.w3.org/2000/svg">
  <defs
     id="defs1" />
  <sodipodi:namedview
     id="namedview1"
     pagecolor="#ffffff"
     bordercolor="#000000"
     borderopacity="0.25"
     inkscape:showpageshadow="2"
     inkscape:pageopacity="0.0"
     inkscape:pagecheckerboard="0"
     inkscape:deskcolor="#d1d1d1"
     inkscape:zoom="5.4018547"
     inkscape:cx="12.865952"
     inkscape:cy="18.4196"
     inkscape:window-width="896"
     inkscape:window-height="752"
     inkscape:window-x="0"
     inkscape:window-y="38"
     inkscape:window-maximized="0"
     inkscape:current-layer="svg1" />
  <path
     fill-rule="evenodd"
     clip-rule="evenodd"
     d="m 39.692787,30.576883 c 0,9.3302 -7.9174,16.8153 -17.4098,16.1193 -8.1697,-0.5956 -14.6799994,-7.3638 -14.9655994,-15.5322 -0.063,-1.8073 0.1679,-3.5519 0.6552,-5.1829 0.4284,-1.4554 1.0585,-2.8265 1.8606,-4.0803 l 1.5851994,-2.5709 c 0.1329,-0.2154 0.4389,-0.2362 0.5999,-0.0404 l 1.6862,2.0516 c 0.3125,0.38 0.3486,0.9161 0.09,1.3346 l -0.7437,1.2043 -0.2521,0.4068 c -1.1215,1.8998 -1.7096,4.0633 -1.7096,6.2901 0,6.9651 5.7839,12.6095 12.815,12.3829 6.0611,-0.1927 11.1811,-4.8391 11.912,-10.844 0.3361,-2.7634 -0.2393,-5.5017 -1.6213,-7.8374 l -0.248,-0.3984 -10.1604,-16.4629001 c -0.1301,-0.2141 -0.441,-0.2141 -0.5752,0 l -2.5119,4.0716001 c -0.3066,0.499 -0.3066,1.1279 0.0043,1.6228 l 2.7931,4.4785 2.5158,4.0256 c 0.1976,0.323 0.0758,0.7507 -0.2687,0.9099 l -1.6129,0.7548 c -0.3402,0.1636 -0.4661,0.5747 -0.2731,0.8974 l 2.1296,3.6023 4.1288,6.9692 c 0.0589,0.1007 0.0253,0.2096 -0.0461,0.2685 -0.0714,0.0586 -0.1807,0.0754 -0.2687,0 l -0.0085,-0.0084 -6.0777,-5.0574 -0.1471,-0.1173 -7.1865,-5.9839 c -0.3529,-0.2936 -0.2856,-0.8596 0.1385,-1.0525 l 0.8947,-0.4237 0.9659,-0.4569 c 0.3696,-0.1803 0.4789,-0.6541 0.2186,-0.9729 l -3.4024,-4.1389 -0.4367,-0.5282 c -0.4412,-0.5327 -0.5377,-1.2666 -0.2687,-1.8872 0.0333,-0.0838 0.0755,-0.1635 0.1216,-0.2389 l 0.378,-0.6081 8.0395,-13.02040011 c 0.214,-0.3521 0.7223,-0.3521 0.9408,0 l 13.1971,21.37780011 c 1.6002,2.5076 2.5243,5.4808 2.5243,8.6761 z"
     fill="#fbd64d"
     id="path1" />
</svg>
