<svg xmlns="http://www.w3.org/2000/svg" viewBox="0 0 128 128"><defs><style>.cls-1{fill:#231f20;}.cls-2{fill:#fff;}</style></defs><g id="Layer_2" data-name="Layer 2"><g id="Layer_1-2" data-name="Layer 1"><rect class="cls-1" width="128" height="128"/><path class="cls-2" d="M65.9,79.44a16.78,16.78,0,0,0,6,11.67q5.32,4.38,14,4.38,7,0,11.39-2.9a9.24,9.24,0,0,0,4.39-8.16,7.44,7.44,0,0,0-2.5-5.93,17.44,17.44,0,0,0-6.94-3.37q-4.45-1.22-13.62-3-14.16-2.7-22.26-8.63T48.23,44.65a25.71,25.71,0,0,1,4.45-14.77A30,30,0,0,1,65.09,19.63a41.66,41.66,0,0,1,17.8-3.71,43.81,43.81,0,0,1,19,4,33.11,33.11,0,0,1,13.21,10.93,27.29,27.29,0,0,1,5,15.57H100.29a14.37,14.37,0,0,0-5.4-9.91q-4.71-3.84-12-3.84-6.47,0-10.45,2.69a8.88,8.88,0,0,0-4,7.83A7.24,7.24,0,0,0,71,49,17.44,17.44,0,0,0,78,52.33q4.58,1.22,13.48,2.84a78.47,78.47,0,0,1,15.85,4.51A25,25,0,0,1,118,67.91q4,5.46,4,14.36a26,26,0,0,1-4.79,15.31,32,32,0,0,1-13.08,10.65,43.47,43.47,0,0,1-18.54,3.85,47.09,47.09,0,0,1-20.5-4.25A33.88,33.88,0,0,1,51.2,96.16a29.94,29.94,0,0,1-5.12-16.72Z"/><path class="cls-2" d="M42.9,91.11a16.78,16.78,0,0,1-6-11.67H17.08A30,30,0,0,0,22.2,96.16a33.88,33.88,0,0,0,13.89,11.67,42.39,42.39,0,0,0,10,3.26V93.17A17.32,17.32,0,0,1,42.9,91.11Z"/><path class="cls-2" d="M42,49a7.24,7.24,0,0,1-2.5-5.79,8.88,8.88,0,0,1,4-7.83A13.35,13.35,0,0,1,46.08,34V16.61a39.68,39.68,0,0,0-10,3A30,30,0,0,0,23.68,29.88a25.71,25.71,0,0,0-4.45,14.77q0,12.95,8.1,18.88,7.05,5.18,18.75,7.89V51.34A14.55,14.55,0,0,1,42,49Z"/><path class="cls-2" d="M11.12,96.16a32,32,0,0,0,6,6.62V79.44H6A30.1,30.1,0,0,0,11.12,96.16Z"/><path class="cls-2" d="M12.61,29.88A25.64,25.64,0,0,0,8.16,44.65q0,12.95,8.09,18.88c.26.19.55.37.83.56V24.87A27.56,27.56,0,0,0,12.61,29.88Z"/></g></g></svg>